<mxfile host="Electron" agent="Mozilla/5.0 (Macintosh; Intel Mac OS X 10_15_7) AppleWebKit/537.36 (KHTML, like Gecko) draw.io/26.0.16 Chrome/132.0.6834.196 Electron/34.2.0 Safari/537.36" version="26.0.16">
  <diagram id="C5RBs43oDa-KdzZeNtuy" name="Page-1">
    <mxGraphModel dx="909" dy="743" grid="1" gridSize="10" guides="1" tooltips="1" connect="1" arrows="1" fold="1" page="1" pageScale="1" pageWidth="1169" pageHeight="827" math="0" shadow="0">
      <root>
        <mxCell id="WIyWlLk6GJQsqaUBKTNV-0" />
        <mxCell id="WIyWlLk6GJQsqaUBKTNV-1" parent="WIyWlLk6GJQsqaUBKTNV-0" />
        <mxCell id="FormatterError" value="FormatterError" style="swimlane;fontStyle=1;align=center;verticalAlign=top;childLayout=stackLayout;horizontal=1;startSize=26;horizontalStack=0;resizeParent=1;resizeParentMax=0;resizeLast=0;collapsible=1;marginBottom=0;fillColor=#dae8fc;strokeColor=#6c8ebf;" parent="WIyWlLk6GJQsqaUBKTNV-1" vertex="1">
          <mxGeometry x="890" y="370" width="200" height="90" as="geometry" />
        </mxCell>
        <mxCell id="FormatterError-attr" value="- message: str" style="text;strokeColor=none;fillColor=none;align=left;verticalAlign=top;spacingLeft=4;spacingRight=4;overflow=hidden;rotatable=0;points=[[0,0.5],[1,0.5]];portConstraint=eastwest;" parent="FormatterError" vertex="1">
          <mxGeometry y="26" width="200" height="26" as="geometry" />
        </mxCell>
        <mxCell id="FormatterError-line" value="" style="line;strokeWidth=1;fillColor=none;align=left;verticalAlign=middle;spacingTop=-1;spacingLeft=3;spacingRight=3;rotatable=0;labelPosition=right;points=[];portConstraint=eastwest;strokeColor=inherit;" parent="FormatterError" vertex="1">
          <mxGeometry y="52" width="200" height="8" as="geometry" />
        </mxCell>
        <mxCell id="FormatterError-method" value="+ __init__(message: str)" style="text;strokeColor=none;fillColor=none;align=left;verticalAlign=top;spacingLeft=4;spacingRight=4;overflow=hidden;rotatable=0;points=[[0,0.5],[1,0.5]];portConstraint=eastwest;" parent="FormatterError" vertex="1">
          <mxGeometry y="60" width="200" height="30" as="geometry" />
        </mxCell>
        <mxCell id="FormatterObject" value="FormatterObject" style="swimlane;fontStyle=1;align=center;verticalAlign=top;childLayout=stackLayout;horizontal=1;startSize=26;horizontalStack=0;resizeParent=1;resizeParentMax=0;resizeLast=0;collapsible=1;marginBottom=0;fillColor=#dae8fc;strokeColor=#6c8ebf;" parent="WIyWlLk6GJQsqaUBKTNV-1" vertex="1">
          <mxGeometry x="200" y="510" width="320" height="130" as="geometry" />
        </mxCell>
        <mxCell id="FormatterObject-attr" value="- _logging_utils: LoggingUtils&#xa;- _json_utils: JsonUtils&#xa;- _generic_utils: GenericUtils&#xa;- _config: Configuration" style="text;strokeColor=none;fillColor=none;align=left;verticalAlign=top;spacingLeft=4;spacingRight=4;overflow=hidden;rotatable=0;points=[[0,0.5],[1,0.5]];portConstraint=eastwest;" parent="FormatterObject" vertex="1">
          <mxGeometry y="26" width="320" height="64" as="geometry" />
        </mxCell>
        <mxCell id="FormatterObject-line" value="" style="line;strokeWidth=1;fillColor=none;align=left;verticalAlign=middle;spacingTop=-1;spacingLeft=3;spacingRight=3;rotatable=0;labelPosition=right;points=[];portConstraint=eastwest;strokeColor=inherit;" parent="FormatterObject" vertex="1">
          <mxGeometry y="90" width="320" height="8" as="geometry" />
        </mxCell>
        <mxCell id="FormatterObject-method" value="+ format_json(data: Dict[str, str], variables: Dict[str, str]): str" style="text;strokeColor=none;fillColor=none;align=left;verticalAlign=top;spacingLeft=4;spacingRight=4;overflow=hidden;rotatable=0;points=[[0,0.5],[1,0.5]];portConstraint=eastwest;" parent="FormatterObject" vertex="1">
          <mxGeometry y="98" width="320" height="32" as="geometry" />
        </mxCell>
        <mxCell id="FormatterFactory" value="FormatterFactory" style="swimlane;fontStyle=1;align=center;verticalAlign=top;childLayout=stackLayout;horizontal=1;startSize=26;horizontalStack=0;resizeParent=1;resizeParentMax=0;resizeLast=0;collapsible=1;marginBottom=0;fillColor=#dae8fc;strokeColor=#6c8ebf;" parent="WIyWlLk6GJQsqaUBKTNV-1" vertex="1">
          <mxGeometry x="135" y="110" width="285" height="130" as="geometry" />
        </mxCell>
        <mxCell id="FormatterFactory-attr" value="- _instance: FormatterFactory&#xa;- _generic_utils: GenericUtils&#xa;- _config: Configuration" style="text;strokeColor=none;fillColor=none;align=left;verticalAlign=top;spacingLeft=4;spacingRight=4;overflow=hidden;rotatable=0;points=[[0,0.5],[1,0.5]];portConstraint=eastwest;" parent="FormatterFactory" vertex="1">
          <mxGeometry y="26" width="285" height="54" as="geometry" />
        </mxCell>
        <mxCell id="FormatterFactory-line" value="" style="line;strokeWidth=1;fillColor=none;align=left;verticalAlign=middle;spacingTop=-1;spacingLeft=3;spacingRight=3;rotatable=0;labelPosition=right;points=[];portConstraint=eastwest;strokeColor=inherit;" parent="FormatterFactory" vertex="1">
          <mxGeometry y="80" width="285" height="8" as="geometry" />
        </mxCell>
        <mxCell id="FormatterFactory-method" value="+ __new__(cls, *args, **kwargs): FormatterFactory&#xa;+ get_formatter(module_name: str, class_name: str): FormatterObject" style="text;strokeColor=none;fillColor=none;align=left;verticalAlign=top;spacingLeft=4;spacingRight=4;overflow=hidden;rotatable=0;points=[[0,0.5],[1,0.5]];portConstraint=eastwest;" parent="FormatterFactory" vertex="1">
          <mxGeometry y="88" width="285" height="42" as="geometry" />
        </mxCell>
        <mxCell id="CodedJsonToMarkdownFormatter" value="CodedJsonToMarkdownFormatter" style="swimlane;fontStyle=1;align=center;verticalAlign=top;childLayout=stackLayout;horizontal=1;startSize=26;horizontalStack=0;resizeParent=1;resizeParentMax=0;resizeLast=0;collapsible=1;marginBottom=0;fillColor=#dae8fc;strokeColor=#6c8ebf;" parent="WIyWlLk6GJQsqaUBKTNV-1" vertex="1">
          <mxGeometry x="80" y="700" width="280" height="110" as="geometry" />
        </mxCell>
        <mxCell id="CodedJsonToMarkdownFormatter-attr" value="- _instance: CodedJsonToMarkdownFormatter" style="text;strokeColor=none;fillColor=none;align=left;verticalAlign=top;spacingLeft=4;spacingRight=4;overflow=hidden;rotatable=0;points=[[0,0.5],[1,0.5]];portConstraint=eastwest;" parent="CodedJsonToMarkdownFormatter" vertex="1">
          <mxGeometry y="26" width="280" height="26" as="geometry" />
        </mxCell>
        <mxCell id="CodedJsonToMarkdownFormatter-line" value="" style="line;strokeWidth=1;fillColor=none;align=left;verticalAlign=middle;spacingTop=-1;spacingLeft=3;spacingRight=3;rotatable=0;labelPosition=right;points=[];portConstraint=eastwest;strokeColor=inherit;" parent="CodedJsonToMarkdownFormatter" vertex="1">
          <mxGeometry y="52" width="280" height="8" as="geometry" />
        </mxCell>
        <mxCell id="CodedJsonToMarkdownFormatter-method" value="+ __new__(cls, *args, **kwargs): CodedJsonToMarkdownFormatter&#xa;+ format_json(data: Dict[str, str], variables: Dict[str, str]): str" style="text;strokeColor=none;fillColor=none;align=left;verticalAlign=top;spacingLeft=4;spacingRight=4;overflow=hidden;rotatable=0;points=[[0,0.5],[1,0.5]];portConstraint=eastwest;" parent="CodedJsonToMarkdownFormatter" vertex="1">
          <mxGeometry y="60" width="280" height="50" as="geometry" />
        </mxCell>
        <mxCell id="Jinja2JsonToMarkdownFormatter" value="Jinja2JsonToMarkdownFormatter" style="swimlane;fontStyle=1;align=center;verticalAlign=top;childLayout=stackLayout;horizontal=1;startSize=26;horizontalStack=0;resizeParent=1;resizeParentMax=0;resizeLast=0;collapsible=1;marginBottom=0;fillColor=#dae8fc;strokeColor=#6c8ebf;" parent="WIyWlLk6GJQsqaUBKTNV-1" vertex="1">
          <mxGeometry x="240" y="290" width="290" height="120" as="geometry" />
        </mxCell>
        <mxCell id="Jinja2JsonToMarkdownFormatter-attr" value="- _instance: Jinja2JsonToMarkdownFormatter" style="text;strokeColor=none;fillColor=none;align=left;verticalAlign=top;spacingLeft=4;spacingRight=4;overflow=hidden;rotatable=0;points=[[0,0.5],[1,0.5]];portConstraint=eastwest;" parent="Jinja2JsonToMarkdownFormatter" vertex="1">
          <mxGeometry y="26" width="290" height="26" as="geometry" />
        </mxCell>
        <mxCell id="Jinja2JsonToMarkdownFormatter-line" value="" style="line;strokeWidth=1;fillColor=none;align=left;verticalAlign=middle;spacingTop=-1;spacingLeft=3;spacingRight=3;rotatable=0;labelPosition=right;points=[];portConstraint=eastwest;strokeColor=inherit;" parent="Jinja2JsonToMarkdownFormatter" vertex="1">
          <mxGeometry y="52" width="290" height="8" as="geometry" />
        </mxCell>
        <mxCell id="Jinja2JsonToMarkdownFormatter-method" value="+ __new__(cls, *args, **kwargs): Jinja2JsonToMarkdownFormatter&#xa;- _load_template(template_path: str): str&#xa;+ format_json(data: Dict[str, str], variables: Dict[str, str]): str" style="text;strokeColor=none;fillColor=none;align=left;verticalAlign=top;spacingLeft=4;spacingRight=4;overflow=hidden;rotatable=0;points=[[0,0.5],[1,0.5]];portConstraint=eastwest;" parent="Jinja2JsonToMarkdownFormatter" vertex="1">
          <mxGeometry y="60" width="290" height="60" as="geometry" />
        </mxCell>
        <mxCell id="Configuration" value="Configuration" style="swimlane;fontStyle=1;align=center;verticalAlign=top;childLayout=stackLayout;horizontal=1;startSize=26;horizontalStack=0;resizeParent=1;resizeParentMax=0;resizeLast=0;collapsible=1;marginBottom=0;fillColor=#d5e8d4;strokeColor=#82b366;" parent="WIyWlLk6GJQsqaUBKTNV-1" vertex="1">
          <mxGeometry x="807" y="190" width="160" height="34" as="geometry">
            <mxRectangle x="827" y="230" width="110" height="30" as="alternateBounds" />
          </mxGeometry>
        </mxCell>
        <mxCell id="LoggingUtils" value="LoggingUtils" style="swimlane;fontStyle=1;align=center;verticalAlign=top;childLayout=stackLayout;horizontal=1;startSize=26;horizontalStack=0;resizeParent=1;resizeParentMax=0;resizeLast=0;collapsible=1;marginBottom=0;fillColor=#e1d5e7;strokeColor=#9673a6;" parent="WIyWlLk6GJQsqaUBKTNV-1" vertex="1">
          <mxGeometry x="640" y="500" width="160" height="34" as="geometry" />
        </mxCell>
        <mxCell id="JsonUtils" value="JsonUtils" style="swimlane;fontStyle=1;align=center;verticalAlign=top;childLayout=stackLayout;horizontal=1;startSize=26;horizontalStack=0;resizeParent=1;resizeParentMax=0;resizeLast=0;collapsible=1;marginBottom=0;fillColor=#e1d5e7;strokeColor=#9673a6;" parent="WIyWlLk6GJQsqaUBKTNV-1" vertex="1">
          <mxGeometry x="640" y="583" width="160" height="34" as="geometry" />
        </mxCell>
        <mxCell id="GenericUtils" value="GenericUtils" style="swimlane;fontStyle=1;align=center;verticalAlign=top;childLayout=stackLayout;horizontal=1;startSize=26;horizontalStack=0;resizeParent=1;resizeParentMax=0;resizeLast=0;collapsible=1;marginBottom=0;fillColor=#e1d5e7;strokeColor=#9673a6;" parent="WIyWlLk6GJQsqaUBKTNV-1" vertex="1">
          <mxGeometry x="560" y="230" width="160" height="34" as="geometry" />
        </mxCell>
        <mxCell id="extends-exception" value="" style="endArrow=block;endSize=16;endFill=0;html=1;rounded=0;exitX=0.5;exitY=0;exitDx=0;exitDy=0;entryX=0.5;entryY=1;entryDx=0;entryDy=0;noEdgeStyle=1;orthogonal=1;" parent="WIyWlLk6GJQsqaUBKTNV-1" source="FormatterError" target="T-svJn54JuO36Zj0Yna1-0" edge="1">
          <mxGeometry width="160" relative="1" as="geometry">
            <mxPoint x="-231" y="329" as="sourcePoint" />
            <mxPoint x="990" y="310" as="targetPoint" />
            <Array as="points" />
          </mxGeometry>
        </mxCell>
        <mxCell id="extends-formatter1" value="" style="endArrow=block;endSize=16;endFill=0;html=1;rounded=0;exitX=0.5;exitY=0;exitDx=0;exitDy=0;entryX=0.25;entryY=1;entryDx=0;entryDy=0;orthogonal=1;" parent="WIyWlLk6GJQsqaUBKTNV-1" source="CodedJsonToMarkdownFormatter" target="FormatterObject" edge="1">
          <mxGeometry width="160" relative="1" as="geometry">
            <mxPoint x="389" y="429" as="sourcePoint" />
            <mxPoint x="479" y="299" as="targetPoint" />
          </mxGeometry>
        </mxCell>
        <mxCell id="extends-formatter2" value="" style="endArrow=block;endSize=16;endFill=0;html=1;rounded=0;entryX=0.5;entryY=0;entryDx=0;entryDy=0;orthogonal=1;exitX=0.489;exitY=0.925;exitDx=0;exitDy=0;exitPerimeter=0;" parent="WIyWlLk6GJQsqaUBKTNV-1" source="Jinja2JsonToMarkdownFormatter-method" target="FormatterObject" edge="1">
          <mxGeometry width="160" relative="1" as="geometry">
            <mxPoint x="350" y="410" as="sourcePoint" />
            <mxPoint x="619" y="299" as="targetPoint" />
          </mxGeometry>
        </mxCell>
        <mxCell id="uses-config1" value="" style="endArrow=none;html=1;endSize=12;startArrow=diamondThin;startSize=14;startFill=1;edgeStyle=orthogonalEdgeStyle;rounded=0;exitX=0.991;exitY=0.125;exitDx=0;exitDy=0;entryX=0;entryY=0.5;entryDx=0;entryDy=0;noEdgeStyle=1;orthogonal=1;exitPerimeter=0;" parent="WIyWlLk6GJQsqaUBKTNV-1" source="FormatterObject" target="Configuration" edge="1">
          <mxGeometry relative="1" as="geometry">
            <mxPoint x="699" y="186" as="sourcePoint" />
            <mxPoint x="729" y="186" as="targetPoint" />
            <Array as="points" />
          </mxGeometry>
        </mxCell>
        <mxCell id="v4ne9jf6zP3tApIQszyK-2" value="1" style="edgeLabel;html=1;align=center;verticalAlign=middle;resizable=0;points=[];" parent="uses-config1" vertex="1" connectable="0">
          <mxGeometry x="-0.8637" y="-1" relative="1" as="geometry">
            <mxPoint as="offset" />
          </mxGeometry>
        </mxCell>
        <mxCell id="uses-logging" value="" style="endArrow=none;html=1;endSize=12;startArrow=diamondThin;startSize=14;startFill=1;edgeStyle=orthogonalEdgeStyle;rounded=0;exitX=1;exitY=0.5;exitDx=0;exitDy=0;entryX=0;entryY=0.5;entryDx=0;entryDy=0;noEdgeStyle=1;orthogonal=1;" parent="WIyWlLk6GJQsqaUBKTNV-1" source="FormatterObject-attr" target="LoggingUtils" edge="1">
          <mxGeometry relative="1" as="geometry">
            <mxPoint x="699" y="236" as="sourcePoint" />
            <mxPoint x="729" y="236" as="targetPoint" />
            <Array as="points" />
          </mxGeometry>
        </mxCell>
        <mxCell id="v4ne9jf6zP3tApIQszyK-4" value="1" style="edgeLabel;html=1;align=center;verticalAlign=middle;resizable=0;points=[];" parent="uses-logging" vertex="1" connectable="0">
          <mxGeometry x="-0.6483" y="1" relative="1" as="geometry">
            <mxPoint as="offset" />
          </mxGeometry>
        </mxCell>
        <mxCell id="uses-json" value="" style="endArrow=none;html=1;endSize=12;startArrow=diamondThin;startSize=14;startFill=1;edgeStyle=orthogonalEdgeStyle;rounded=0;exitX=1;exitY=0.906;exitDx=0;exitDy=0;entryX=0;entryY=0.5;entryDx=0;entryDy=0;noEdgeStyle=1;orthogonal=1;exitPerimeter=0;" parent="WIyWlLk6GJQsqaUBKTNV-1" source="FormatterObject-attr" target="JsonUtils" edge="1">
          <mxGeometry relative="1" as="geometry">
            <mxPoint x="699" y="286" as="sourcePoint" />
            <mxPoint x="729" y="286" as="targetPoint" />
            <Array as="points" />
          </mxGeometry>
        </mxCell>
        <mxCell id="v4ne9jf6zP3tApIQszyK-5" value="1" style="edgeLabel;html=1;align=center;verticalAlign=middle;resizable=0;points=[];" parent="uses-json" vertex="1" connectable="0">
          <mxGeometry x="-0.5664" y="1" relative="1" as="geometry">
            <mxPoint as="offset" />
          </mxGeometry>
        </mxCell>
        <mxCell id="uses-generic1" value="" style="endArrow=none;html=1;endSize=12;startArrow=diamondThin;startSize=14;startFill=1;edgeStyle=orthogonalEdgeStyle;rounded=0;exitX=0.969;exitY=-0.017;exitDx=0;exitDy=0;entryX=0.25;entryY=1;entryDx=0;entryDy=0;noEdgeStyle=1;orthogonal=1;exitPerimeter=0;labelPosition=center;verticalLabelPosition=middle;align=center;verticalAlign=middle;" parent="WIyWlLk6GJQsqaUBKTNV-1" source="FormatterObject" target="GenericUtils" edge="1">
          <mxGeometry relative="1" as="geometry">
            <mxPoint x="699" y="336" as="sourcePoint" />
            <mxPoint x="729" y="336" as="targetPoint" />
            <Array as="points" />
          </mxGeometry>
        </mxCell>
        <mxCell id="v4ne9jf6zP3tApIQszyK-1" value="1" style="edgeLabel;html=1;align=center;verticalAlign=middle;resizable=0;points=[];" parent="uses-generic1" vertex="1" connectable="0">
          <mxGeometry x="-0.7759" y="1" relative="1" as="geometry">
            <mxPoint as="offset" />
          </mxGeometry>
        </mxCell>
        <mxCell id="uses-config2" value="" style="endArrow=none;html=1;endSize=12;startArrow=diamondThin;startSize=14;startFill=1;edgeStyle=orthogonalEdgeStyle;rounded=0;exitX=0.996;exitY=0.125;exitDx=0;exitDy=0;entryX=0;entryY=0.25;entryDx=0;entryDy=0;noEdgeStyle=1;orthogonal=1;exitPerimeter=0;" parent="WIyWlLk6GJQsqaUBKTNV-1" source="FormatterFactory" target="Configuration" edge="1">
          <mxGeometry relative="1" as="geometry">
            <mxPoint x="419" y="342" as="sourcePoint" />
            <mxPoint x="809" y="209" as="targetPoint" />
            <Array as="points" />
          </mxGeometry>
        </mxCell>
        <mxCell id="uses-generic2" value="" style="endArrow=none;html=1;endSize=12;startArrow=diamondThin;startSize=14;startFill=1;edgeStyle=orthogonalEdgeStyle;rounded=0;exitX=1;exitY=0.5;exitDx=0;exitDy=0;entryX=0;entryY=0.5;entryDx=0;entryDy=0;noEdgeStyle=1;orthogonal=1;" parent="WIyWlLk6GJQsqaUBKTNV-1" source="FormatterFactory-attr" target="GenericUtils" edge="1">
          <mxGeometry relative="1" as="geometry">
            <mxPoint x="419" y="342" as="sourcePoint" />
            <mxPoint x="729" y="336" as="targetPoint" />
            <Array as="points" />
          </mxGeometry>
        </mxCell>
        <mxCell id="creates" value="«creates»" style="endArrow=open;endSize=12;dashed=1;html=1;rounded=0;entryX=0.286;entryY=-0.033;entryDx=0;entryDy=0;orthogonal=1;entryPerimeter=0;exitX=0.079;exitY=1.031;exitDx=0;exitDy=0;exitPerimeter=0;" parent="WIyWlLk6GJQsqaUBKTNV-1" source="FormatterFactory-method" target="CodedJsonToMarkdownFormatter" edge="1">
          <mxGeometry width="160" relative="1" as="geometry">
            <mxPoint x="269" y="419" as="sourcePoint" />
            <mxPoint x="429" y="419" as="targetPoint" />
          </mxGeometry>
        </mxCell>
        <mxCell id="creates2" value="«creates»" style="endArrow=open;endSize=12;dashed=1;html=1;rounded=0;exitX=0.75;exitY=1;exitDx=0;exitDy=0;entryX=0.382;entryY=-0.01;entryDx=0;entryDy=0;orthogonal=1;entryPerimeter=0;" parent="WIyWlLk6GJQsqaUBKTNV-1" source="FormatterFactory" target="Jinja2JsonToMarkdownFormatter" edge="1">
          <mxGeometry width="160" relative="1" as="geometry">
            <mxPoint x="339" y="419" as="sourcePoint" />
            <mxPoint x="399" y="459" as="targetPoint" />
          </mxGeometry>
        </mxCell>
        <mxCell id="note1" value="Singleton Pattern" style="shape=note;size=4;whiteSpace=wrap;html=1;fillColor=#fff2cc;strokeColor=#d6b656;" parent="WIyWlLk6GJQsqaUBKTNV-1" vertex="1">
          <mxGeometry x="35" y="630" width="100" height="40" as="geometry" />
        </mxCell>
        <mxCell id="note-connector1" value="" style="endArrow=none;dashed=1;html=1;rounded=0;exitX=0.5;exitY=1;exitDx=0;exitDy=0;exitPerimeter=0;noEdgeStyle=1;orthogonal=1;entryX=0.093;entryY=-0.044;entryDx=0;entryDy=0;entryPerimeter=0;" parent="WIyWlLk6GJQsqaUBKTNV-1" source="note1" target="CodedJsonToMarkdownFormatter" edge="1">
          <mxGeometry width="50" height="50" relative="1" as="geometry">
            <mxPoint x="239" y="469" as="sourcePoint" />
            <mxPoint x="80" y="570" as="targetPoint" />
            <Array as="points" />
          </mxGeometry>
        </mxCell>
        <mxCell id="note2" value="Factory Pattern" style="shape=note;size=0;whiteSpace=wrap;html=1;fillColor=#fff2cc;strokeColor=#d6b656;" parent="WIyWlLk6GJQsqaUBKTNV-1" vertex="1">
          <mxGeometry x="110" y="20" width="100" height="40" as="geometry" />
        </mxCell>
        <mxCell id="note-connector2" value="" style="endArrow=none;dashed=1;html=1;rounded=0;exitX=0.5;exitY=1;exitDx=0;exitDy=0;exitPerimeter=0;entryX=0.121;entryY=0.033;entryDx=0;entryDy=0;noEdgeStyle=1;orthogonal=1;entryPerimeter=0;" parent="WIyWlLk6GJQsqaUBKTNV-1" source="note2" target="FormatterFactory" edge="1">
          <mxGeometry width="50" height="50" relative="1" as="geometry">
            <mxPoint x="239" y="269" as="sourcePoint" />
            <mxPoint x="289" y="219" as="targetPoint" />
            <Array as="points" />
          </mxGeometry>
        </mxCell>
        <mxCell id="DWbx2ITpjy8Ppw4fOh1X-0" value="Singleton Pattern" style="shape=note;size=20;whiteSpace=wrap;html=1;fillColor=#fff2cc;strokeColor=#d6b656;" parent="WIyWlLk6GJQsqaUBKTNV-1" vertex="1">
          <mxGeometry x="200" y="440" width="100" height="40" as="geometry" />
        </mxCell>
        <mxCell id="DWbx2ITpjy8Ppw4fOh1X-1" style="rounded=0;orthogonalLoop=1;jettySize=auto;html=1;entryX=0.159;entryY=0.008;entryDx=0;entryDy=0;entryPerimeter=0;dashed=1;endArrow=none;startFill=0;" parent="WIyWlLk6GJQsqaUBKTNV-1" source="DWbx2ITpjy8Ppw4fOh1X-0" target="FormatterObject" edge="1">
          <mxGeometry relative="1" as="geometry" />
        </mxCell>
        <mxCell id="T-svJn54JuO36Zj0Yna1-0" value="Exception" style="swimlane;fontStyle=1;align=center;verticalAlign=top;childLayout=stackLayout;horizontal=1;startSize=26;horizontalStack=0;resizeParent=1;resizeParentMax=0;resizeLast=0;collapsible=1;marginBottom=0;fillColor=#FFDC69;strokeColor=#82b366;" vertex="1" parent="WIyWlLk6GJQsqaUBKTNV-1">
          <mxGeometry x="910" y="270" width="160" height="40" as="geometry">
            <mxRectangle x="827" y="230" width="110" height="30" as="alternateBounds" />
          </mxGeometry>
        </mxCell>
      </root>
    </mxGraphModel>
  </diagram>
</mxfile>
